<svg xmlns="http://www.w3.org/2000/svg" viewBox="0 0 24 24">
  <!-- checkmark (top-right to bottom-left diagonal) -->
  <!-- top-right tip -->
  <rect x="18" y="3" width="3" height="3" fill="#FF1493"/>
  <rect x="21" y="3" width="3" height="3" fill="#FF1493"/>
  <!-- descending arm -->
  <rect x="15" y="6" width="3" height="3" fill="#FF69B4"/>
  <rect x="18" y="6" width="3" height="3" fill="#FFB6C1"/>
  <rect x="12" y="9" width="3" height="3" fill="#FF69B4"/>
  <rect x="15" y="9" width="3" height="3" fill="#FFB6C1"/>
  <rect x="9" y="12" width="3" height="3" fill="#FF69B4"/>
  <rect x="12" y="12" width="3" height="3" fill="#FFB6C1"/>
  <!-- bottom-left curve -->
  <rect x="3" y="15" width="3" height="3" fill="#FF1493"/>
  <rect x="6" y="15" width="3" height="3" fill="#FF1493"/>
  <rect x="9" y="15" width="3" height="3" fill="#FFB6C1"/>
  <rect x="0" y="18" width="3" height="3" fill="#FF1493"/>
  <rect x="3" y="18" width="3" height="3" fill="#FF69B4"/>
  <rect x="6" y="18" width="3" height="3" fill="#FFB6C1"/>
  <!-- ascending arm -->
  <rect x="3" y="12" width="3" height="3" fill="#FF69B4"/>
  <rect x="6" y="12" width="3" height="3" fill="#FF69B4"/>
  <rect x="6" y="9" width="3" height="3" fill="#FF69B4"/>
  <rect x="9" y="9" width="3" height="3" fill="#FFB6C1"/>
  <rect x="9" y="6" width="3" height="3" fill="#FF69B4"/>
  <rect x="12" y="6" width="3" height="3" fill="#FFB6C1"/>
  <!-- highlight dots -->
  <rect x="15" y="12" width="3" height="3" fill="#FF69B4"/>
  <rect x="6" y="6" width="3" height="3" fill="#FF69B4"/>
</svg>
