<svg xmlns="http://www.w3.org/2000/svg" viewBox="0 0 24 24">
  <!-- tip (deep pink) -->
  <rect x="6" y="3" width="3" height="3" fill="#FF1493"/>
  <rect x="9" y="3" width="3" height="3" fill="#FF1493"/>
  <!-- pencil body (hot pink) -->
  <rect x="6" y="6" width="3" height="3" fill="#FF69B4"/>
  <rect x="9" y="6" width="3" height="3" fill="#FF69B4"/>
  <!-- body highlight (light pink) -->
  <rect x="12" y="6" width="3" height="3" fill="#FFB6C1"/>
  <rect x="6" y="9" width="3" height="3" fill="#FF69B4"/>
  <rect x="9" y="9" width="3" height="3" fill="#FF69B4"/>
  <rect x="12" y="9" width="3" height="3" fill="#FFB6C1"/>
  <rect x="6" y="12" width="3" height="3" fill="#FF69B4"/>
  <rect x="9" y="12" width="3" height="3" fill="#FF69B4"/>
  <rect x="12" y="12" width="3" height="3" fill="#FFB6C1"/>
  <rect x="6" y="15" width="3" height="3" fill="#FF69B4"/>
  <rect x="9" y="15" width="3" height="3" fill="#FF69B4"/>
  <rect x="12" y="15" width="3" height="3" fill="#FFB6C1"/>
  <!-- eraser (light pink band) -->
  <rect x="6" y="18" width="3" height="3" fill="#FFB6C1"/>
  <rect x="9" y="18" width="3" height="3" fill="#FFB6C1"/>
  <rect x="12" y="18" width="3" height="3" fill="#FFB6C1"/>
  <rect x="6" y="21" width="3" height="3" fill="#FFB6C1"/>
  <rect x="9" y="21" width="3" height="3" fill="#FFB6C1"/>
  <rect x="12" y="21" width="3" height="3" fill="#FFB6C1"/>
</svg>
