<svg xmlns="http://www.w3.org/2000/svg" viewBox="0 0 24 24">
  <!-- top edge -->
  <rect x="0" y="0" width="3" height="3" fill="#FF1493"/>
  <rect x="3" y="0" width="3" height="3" fill="#FF1493"/>
  <rect x="6" y="0" width="3" height="3" fill="#FF1493"/>
  <rect x="9" y="0" width="3" height="3" fill="#FF1493"/>
  <rect x="12" y="0" width="3" height="3" fill="#FF1493"/>
  <rect x="15" y="0" width="3" height="3" fill="#FF1493"/>
  <rect x="18" y="0" width="3" height="3" fill="#FF1493"/>
  <rect x="21" y="0" width="3" height="3" fill="#FF1493"/>
  <!-- left edge -->
  <rect x="0" y="3" width="3" height="3" fill="#FF1493"/>
  <rect x="0" y="6" width="3" height="3" fill="#FF1493"/>
  <rect x="0" y="9" width="3" height="3" fill="#FF1493"/>
  <rect x="0" y="12" width="3" height="3" fill="#FF1493"/>
  <rect x="0" y="15" width="3" height="3" fill="#FF1493"/>
  <rect x="0" y="18" width="3" height="3" fill="#FF1493"/>
  <!-- right edge -->
  <rect x="21" y="3" width="3" height="3" fill="#FF1493"/>
  <rect x="21" y="6" width="3" height="3" fill="#FF1493"/>
  <rect x="21" y="9" width="3" height="3" fill="#FF1493"/>
  <rect x="21" y="12" width="3" height="3" fill="#FF1493"/>
  <rect x="21" y="15" width="3" height="3" fill="#FF1493"/>
  <rect x="21" y="18" width="3" height="3" fill="#FF1493"/>
  <!-- bottom edge -->
  <rect x="0" y="21" width="3" height="3" fill="#FF1493"/>
  <rect x="3" y="21" width="3" height="3" fill="#FF1493"/>
  <rect x="6" y="21" width="3" height="3" fill="#FF1493"/>
  <rect x="9" y="21" width="3" height="3" fill="#FF1493"/>
  <rect x="12" y="21" width="3" height="3" fill="#FF1493"/>
  <rect x="15" y="21" width="3" height="3" fill="#FF1493"/>
  <rect x="18" y="21" width="3" height="3" fill="#FF1493"/>
  <rect x="21" y="21" width="3" height="3" fill="#FF1493"/>
  <!-- inner highlight (light pink corners) -->
  <rect x="3" y="3" width="3" height="3" fill="#FFB6C1"/>
  <rect x="18" y="18" width="3" height="3" fill="#FFB6C1"/>
</svg>
